<?xml version="1.0" standalone="no"?>
<svg xmlns:xlink="http://www.w3.org/1999/xlink" id="wave" style="transform:rotate(0deg); transition: 0.3s" viewBox="0 0 1440 200" version="1.1" xmlns="http://www.w3.org/2000/svg"><defs><linearGradient id="sw-gradient-0" x1="0" x2="0" y1="1" y2="0"><stop stop-color="rgba(255, 255, 255, 1)" offset="0%"/><stop stop-color="rgba(255, 255, 255, 1)" offset="100%"/></linearGradient></defs><path style="transform:translate(0, 0px); opacity:1" fill="url(#sw-gradient-0)" d="M0,140L80,120C160,100,320,60,480,66.7C640,73,800,127,960,150C1120,173,1280,167,1440,136.7C1600,107,1760,53,1920,56.7C2080,60,2240,120,2400,150C2560,180,2720,180,2880,170C3040,160,3200,140,3360,136.7C3520,133,3680,147,3840,126.7C4000,107,4160,53,4320,33.3C4480,13,4640,27,4800,50C4960,73,5120,107,5280,126.7C5440,147,5600,153,5760,156.7C5920,160,6080,160,6240,140C6400,120,6560,80,6720,70C6880,60,7040,80,7200,83.3C7360,87,7520,73,7680,60C7840,47,8000,33,8160,36.7C8320,40,8480,60,8640,66.7C8800,73,8960,67,9120,63.3C9280,60,9440,60,9600,66.7C9760,73,9920,87,10080,106.7C10240,127,10400,153,10560,153.3C10720,153,10880,127,11040,110C11200,93,11360,87,11440,83.3L11520,80L11520,200L11440,200C11360,200,11200,200,11040,200C10880,200,10720,200,10560,200C10400,200,10240,200,10080,200C9920,200,9760,200,9600,200C9440,200,9280,200,9120,200C8960,200,8800,200,8640,200C8480,200,8320,200,8160,200C8000,200,7840,200,7680,200C7520,200,7360,200,7200,200C7040,200,6880,200,6720,200C6560,200,6400,200,6240,200C6080,200,5920,200,5760,200C5600,200,5440,200,5280,200C5120,200,4960,200,4800,200C4640,200,4480,200,4320,200C4160,200,4000,200,3840,200C3680,200,3520,200,3360,200C3200,200,3040,200,2880,200C2720,200,2560,200,2400,200C2240,200,2080,200,1920,200C1760,200,1600,200,1440,200C1280,200,1120,200,960,200C800,200,640,200,480,200C320,200,160,200,80,200L0,200Z"/></svg>